<svg xmlns="http://www.w3.org/2000/svg" xmlns:xlink="http://www.w3.org/1999/xlink" width="500" zoomAndPan="magnify" viewBox="0 0 375 374.999991" height="500" preserveAspectRatio="xMidYMid meet" version="1.0"><defs><clipPath id="6d8908d731"><path d="M 10.753906 18.1875 L 349.753906 18.1875 L 349.753906 357 L 10.753906 357 Z M 10.753906 18.1875 " clip-rule="nonzero"/></clipPath><clipPath id="7e1c4621e3"><path d="M 231 175 L 349.753906 175 L 349.753906 345 L 231 345 Z M 231 175 " clip-rule="nonzero"/></clipPath><clipPath id="2a8f12e7ec"><path d="M 227 173.390625 L 245.285156 173.390625 L 245.285156 209 L 227 209 Z M 227 173.390625 " clip-rule="nonzero"/></clipPath><clipPath id="561d255e9e"><path d="M 175 222 L 186 222 L 186 234.140625 L 175 234.140625 Z M 175 222 " clip-rule="nonzero"/></clipPath><clipPath id="86425af468"><path d="M 129.785156 174 L 148 174 L 148 210 L 129.785156 210 Z M 129.785156 174 " clip-rule="nonzero"/></clipPath></defs><path fill="#004c99" d="M 141.757812 276.402344 L 139.472656 274.863281 C 140.175781 275.453125 140.945312 275.972656 141.757812 276.402344 " fill-opacity="1" fill-rule="nonzero"/><path fill="#004c99" d="M 139.101562 274.613281 L 139.472656 274.863281 C 139.351562 274.757812 139.230469 274.652344 139.113281 274.546875 L 139.101562 274.613281 " fill-opacity="1" fill-rule="nonzero"/><path fill="#004c99" d="M 121.054688 182.640625 C 118.394531 182.640625 116.238281 184.792969 116.238281 187.457031 C 116.238281 190.117188 118.394531 192.273438 121.054688 192.273438 C 123.71875 192.273438 125.875 190.117188 125.875 187.457031 C 125.875 184.792969 123.71875 182.640625 121.054688 182.640625 " fill-opacity="1" fill-rule="nonzero"/><path fill="#004c99" d="M 189.578125 250.039062 C 189.757812 251.277344 190.828125 252.203125 192.082031 252.199219 C 195.339844 252.179688 198.570312 251.953125 201.734375 251.492188 C 208.679688 250.492188 215.160156 248.40625 220.976562 245.46875 C 227.558594 242.152344 233.289062 237.738281 237.878906 232.578125 C 239.429688 230.839844 238.015625 228.121094 235.726562 228.386719 C 235.089844 228.460938 234.507812 228.792969 234.082031 229.273438 C 226.214844 238.101562 214.578125 244.539062 201.015625 246.492188 C 198.097656 246.914062 195.089844 247.121094 192.042969 247.128906 C 190.8125 247.128906 189.816406 248.019531 189.59375 249.160156 C 189.539062 249.425781 189.527344 249.714844 189.570312 250.003906 L 189.578125 250.039062 " fill-opacity="1" fill-rule="nonzero"/><g clip-path="url(#6d8908d731)"><path fill="#004c99" d="M 180.085938 345.074219 C 93.070312 345.074219 22.53125 274.535156 22.53125 187.519531 C 22.53125 100.5 93.070312 29.964844 180.085938 29.964844 C 262.980469 29.964844 330.921875 93.980469 337.171875 175.273438 L 349.355469 183.480469 C 347.210938 91.835938 272.25 18.199219 180.085938 18.199219 C 86.574219 18.199219 10.765625 94.003906 10.765625 187.519531 C 10.765625 281.03125 86.574219 356.839844 180.085938 356.839844 C 202.371094 356.839844 223.652344 352.527344 243.140625 344.703125 L 231.132812 336.617188 C 215.125 342.09375 197.953125 345.074219 180.085938 345.074219 " fill-opacity="1" fill-rule="nonzero"/></g><g clip-path="url(#7e1c4621e3)"><path fill="#004c99" d="M 349.355469 183.480469 L 337.171875 175.273438 C 337.484375 179.3125 337.640625 183.394531 337.640625 187.519531 C 337.640625 187.53125 337.640625 187.539062 337.640625 187.554688 C 337.636719 208.640625 333.484375 228.761719 325.960938 247.144531 C 309.625 287.078125 277.367188 318.808594 237.078125 334.445312 C 235.117188 335.210938 233.132812 335.929688 231.132812 336.617188 L 243.140625 344.703125 C 245.054688 343.933594 246.957031 343.132812 248.84375 342.292969 C 287.886719 324.925781 319.136719 293.210938 335.914062 253.851562 C 343.636719 235.734375 348.292969 215.996094 349.230469 195.285156 C 349.34375 192.710938 349.40625 190.125 349.40625 187.519531 C 349.40625 186.167969 349.390625 184.820312 349.355469 183.480469 " fill-opacity="1" fill-rule="nonzero"/></g><path fill="#004c99" d="M 330.882812 183.039062 C 330.761719 178.792969 330.457031 174.589844 329.988281 170.429688 L 206.808594 87.441406 L 206.800781 87.445312 C 214.398438 93.5 219.269531 102.824219 219.269531 113.296875 C 219.269531 124.390625 213.800781 134.203125 205.417969 140.195312 C 200.523438 139.191406 194.964844 138.53125 189.019531 138.308594 L 189.019531 136.484375 C 190.570312 136.191406 192.042969 135.742188 193.429688 135.113281 C 196.019531 133.933594 197.980469 132.300781 199.308594 130.214844 C 200.636719 128.128906 201.304688 125.867188 201.304688 123.421875 C 201.304688 120.875 200.589844 118.515625 199.164062 116.347656 C 197.734375 114.175781 194.394531 111.984375 189.152344 109.757812 L 185.238281 108.109375 C 183.015625 107.152344 181.472656 106.179688 180.625 105.1875 C 179.746094 104.226562 179.304688 103.144531 179.304688 101.9375 C 179.304688 100.402344 179.953125 99.070312 181.246094 97.941406 C 182.542969 96.816406 184.496094 96.257812 187.113281 96.257812 C 189.265625 96.257812 192.007812 96.691406 195.332031 97.566406 C 196.667969 97.917969 197.972656 96.929688 197.972656 95.550781 L 197.972656 93.25 C 197.972656 92.25 197.265625 91.390625 196.28125 91.199219 C 193.53125 90.6875 191.109375 90.367188 189.019531 90.238281 L 189.019531 87.464844 C 189.019531 85.960938 187.800781 84.746094 186.292969 84.746094 C 184.792969 84.746094 183.574219 85.960938 183.574219 87.464844 L 183.574219 90.375 C 180.128906 90.808594 177.402344 91.933594 175.410156 93.753906 C 172.796875 96.136719 171.492188 99.128906 171.492188 102.722656 C 171.492188 105.605469 172.328125 108.03125 174.007812 110.007812 C 175.679688 112.011719 178.34375 113.765625 182 115.277344 L 186.734375 117.292969 C 189.511719 118.445312 191.28125 119.585938 192.050781 120.710938 C 192.816406 121.835938 193.203125 122.988281 193.203125 124.167969 C 193.203125 126.0625 192.429688 127.640625 190.882812 128.902344 C 189.332031 130.164062 187.40625 130.796875 185.101562 130.796875 C 181.925781 130.796875 178.296875 129.929688 174.21875 128.203125 C 172.832031 127.613281 171.285156 128.605469 171.285156 130.109375 L 171.285156 132.757812 C 171.285156 133.667969 171.882812 134.492188 172.753906 134.753906 C 176.882812 136.011719 180.46875 136.679688 183.574219 136.824219 L 183.574219 138.230469 C 177.425781 138.273438 171.613281 138.78125 166.421875 139.65625 L 171.511719 143.089844 C 175.59375 142.566406 180.011719 142.277344 184.628906 142.277344 C 198.875 142.277344 211.261719 145 217.570312 149.007812 L 221.390625 144.378906 C 241.914062 153.921875 256.5625 171.554688 259.527344 192.285156 C 259.933594 195.09375 262.308594 197.1875 265.144531 197.234375 C 266.84375 197.261719 268.671875 197.125 270.628906 196.828125 C 274.40625 196.253906 276.386719 195.085938 276.53125 193.363281 C 276.617188 192.261719 276.011719 191.011719 274.941406 190.09375 C 273.875 189.179688 272.554688 188.773438 271.492188 189.027344 C 270.683594 189.222656 270.066406 189.671875 269.871094 190.011719 C 269.820312 190.105469 269.78125 190.203125 269.851562 190.421875 C 269.902344 190.589844 270.105469 190.8125 270.457031 191.039062 C 271.363281 191.617188 271.746094 192.769531 271.21875 193.777344 C 270.660156 194.851562 269.261719 195.179688 268.234375 194.523438 C 267.21875 193.871094 266.328125 192.960938 265.914062 191.683594 C 265.507812 190.40625 265.632812 189.128906 266.273438 187.984375 C 267.070312 186.574219 268.660156 185.460938 270.53125 185.015625 C 272.890625 184.445312 275.546875 185.171875 277.628906 186.957031 C 279.714844 188.746094 280.84375 191.269531 280.644531 193.703125 C 280.425781 196.367188 278.621094 199.785156 271.253906 200.910156 C 269.253906 201.21875 267.355469 201.367188 265.566406 201.367188 C 265.546875 201.367188 265.527344 201.367188 265.507812 201.367188 C 263.734375 201.363281 262.125 202.152344 261.046875 203.410156 C 260.332031 204.242188 259.855469 205.277344 259.71875 206.441406 C 258.316406 218.492188 252.96875 229.546875 244.808594 238.644531 C 243.640625 239.941406 242.417969 241.203125 241.144531 242.417969 C 240.128906 243.382812 239.160156 244.390625 238.226562 245.429688 C 232.664062 251.617188 228.578125 259.015625 226.203125 267.027344 L 225.71875 268.660156 C 223.78125 275.1875 217.113281 279.082031 210.492188 277.566406 C 203.910156 276.0625 199.542969 269.136719 200.71875 262.488281 L 200.773438 262.164062 C 196.066406 262.972656 191.199219 263.398438 186.214844 263.398438 C 177.484375 263.398438 168.558594 262.101562 159.921875 259.714844 L 160.410156 262.488281 C 161.585938 269.136719 157.21875 276.0625 150.636719 277.566406 C 147.519531 278.277344 144.394531 277.792969 141.757812 276.402344 L 224.082031 331.867188 C 226.140625 331.238281 228.179688 330.570312 230.199219 329.859375 C 271.292969 315.398438 304.230469 283.636719 320.289062 243.324219 C 327.167969 226.058594 330.953125 207.234375 330.953125 187.519531 C 330.953125 186.019531 330.925781 184.527344 330.882812 183.039062 " fill-opacity="1" fill-rule="nonzero"/><path fill="#004c99" d="M 180.085938 36.652344 C 96.765625 36.652344 29.21875 104.199219 29.21875 187.519531 C 29.21875 270.839844 96.765625 338.382812 180.085938 338.382812 C 195.390625 338.382812 210.160156 336.101562 224.082031 331.867188 L 141.757812 276.402344 C 140.945312 275.972656 140.175781 275.453125 139.472656 274.863281 L 139.101562 274.613281 L 139.113281 274.546875 C 137.417969 273.011719 136.109375 271.007812 135.410156 268.660156 L 134.636719 266.046875 C 131.878906 256.738281 127.273438 248.136719 121.234375 240.59375 C 120.148438 239.234375 119.011719 237.902344 117.832031 236.613281 C 117.285156 236.011719 116.730469 235.417969 116.164062 234.835938 C 112.570312 231.132812 109.574219 227.996094 106.679688 224.089844 C 105.359375 222.3125 102.683594 221.992188 100.980469 220.722656 C 100.222656 220.164062 100.597656 218.957031 101.539062 218.890625 L 117.15625 216.710938 C 116.300781 216.828125 115.132812 216.453125 114.296875 216.316406 C 108.558594 215.40625 102.679688 213.964844 97.523438 211.21875 C 92.414062 208.503906 88.550781 203.429688 88.886719 197.425781 C 89.167969 192.421875 91.894531 189.210938 96.117188 186.964844 C 99.539062 185.140625 103.589844 183.628906 105.464844 179.96875 C 106.34375 178.257812 107.324219 176.578125 108.402344 174.933594 C 110.945312 171.058594 111.371094 166.164062 109.523438 161.914062 C 105.746094 153.222656 100.929688 142.640625 103.773438 140.105469 C 105.953125 138.160156 119.039062 138.710938 135.777344 150.402344 C 139.96875 148.027344 144.386719 145.917969 148.960938 144.109375 L 152.5625 148.476562 C 156.882812 146.023438 163.554688 144.105469 171.511719 143.089844 L 166.421875 139.65625 C 166.386719 139.664062 166.347656 139.667969 166.3125 139.675781 C 158.328125 133.644531 153.160156 124.078125 153.160156 113.296875 C 153.160156 95.042969 167.957031 80.242188 186.214844 80.242188 C 194 80.242188 201.152344 82.9375 206.800781 87.445312 L 206.808594 87.441406 L 329.988281 170.429688 C 321.507812 95.160156 257.628906 36.652344 180.085938 36.652344 " fill-opacity="1" fill-rule="nonzero"/><path fill="#e6f2ff" d="M 199.621094 228.292969 L 186.976562 220.308594 C 186.949219 220.289062 186.925781 220.257812 186.894531 220.238281 C 185.550781 219.1875 183.925781 218.6875 182.246094 218.890625 C 182.144531 218.902344 182.050781 218.925781 181.957031 218.941406 C 181.824219 217.175781 181.019531 215.46875 179.585938 214.296875 C 178.265625 213.21875 176.613281 212.742188 174.933594 212.949219 C 174.875 212.957031 174.820312 212.972656 174.761719 212.980469 C 174.6875 211.136719 173.871094 209.328125 172.375 208.109375 C 171.050781 207.027344 169.402344 206.550781 167.722656 206.761719 C 166.019531 206.976562 164.511719 207.863281 163.476562 209.265625 L 162.8125 210.164062 C 162.648438 210.390625 162.304688 210.359375 162.175781 210.109375 C 161.78125 209.34375 161.234375 208.648438 160.539062 208.085938 C 159.214844 207.003906 157.5625 206.527344 155.886719 206.734375 C 154.1875 206.949219 152.679688 207.839844 151.640625 209.242188 L 149.464844 212.179688 L 148.9375 212.253906 C 147.550781 211.195312 146.121094 210.117188 144.460938 209.386719 C 144.191406 209.273438 144.046875 208.976562 144.117188 208.695312 L 150.84375 181.117188 C 150.878906 180.960938 150.976562 180.828125 151.113281 180.746094 C 151.25 180.660156 151.414062 180.636719 151.570312 180.675781 C 154.429688 181.375 157.867188 181.769531 161.453125 181.769531 C 166.59375 181.769531 172.035156 180.960938 176.472656 179.0625 C 181.039062 177.109375 183.59375 176.136719 186.171875 176 C 186.566406 175.976562 186.726562 176.5 186.382812 176.699219 C 182.359375 179.019531 177.945312 182.347656 176.328125 185.871094 C 176.324219 185.882812 176.316406 185.902344 176.304688 185.917969 C 176.304688 185.921875 176.304688 185.925781 176.300781 185.929688 C 176.292969 185.945312 176.289062 185.960938 176.28125 185.980469 C 176.269531 186.007812 176.257812 186.03125 176.246094 186.0625 L 172.308594 197.351562 C 171.9375 198.410156 172.011719 199.597656 172.511719 200.597656 C 173 201.585938 173.839844 202.3125 174.871094 202.640625 C 177.164062 203.375 181.5625 203.910156 185.25 199.21875 C 185.265625 199.195312 185.28125 199.175781 185.296875 199.15625 C 186.894531 196.925781 188.054688 194.996094 188.75 193.847656 C 188.84375 193.6875 188.933594 193.535156 189.015625 193.402344 C 189.078125 193.300781 189.1875 193.234375 189.304688 193.222656 L 193.484375 192.867188 C 193.628906 192.855469 193.769531 192.898438 193.898438 192.988281 L 217.578125 209.898438 L 218.589844 210.617188 C 222.441406 213.488281 217.703125 218.914062 213.828125 215.980469 C 213.507812 215.757812 212.152344 214.816406 211.804688 214.570312 C 206.320312 210.753906 198 204.941406 197.882812 204.863281 C 197.128906 204.34375 196.101562 204.523438 195.582031 205.273438 C 195.058594 206.019531 195.234375 207.0625 195.988281 207.574219 C 196.101562 207.648438 204.105469 213.242188 209.597656 217.058594 C 209.941406 217.304688 210.277344 217.535156 210.601562 217.761719 C 213.382812 219.859375 209.746094 224.761719 206.40625 222.492188 L 205.402344 221.789062 L 192.328125 212.589844 C 191.582031 212.0625 190.550781 212.246094 190.027344 212.992188 C 189.5 213.738281 189.679688 214.769531 190.425781 215.292969 L 203.195312 224.28125 C 205.945312 226.234375 202.746094 230.277344 199.632812 228.292969 Z M 199.621094 228.292969 " fill-opacity="1" fill-rule="nonzero"/><path fill="#e6f2ff" d="M 193.785156 231.746094 C 194.207031 231.167969 194.371094 230.46875 194.246094 229.777344 C 194.113281 229.066406 193.699219 228.449219 193.070312 228.035156 L 188.917969 225.304688 C 188.933594 226.652344 188.53125 228.011719 187.6875 229.15625 L 186.726562 230.457031 L 190.140625 232.703125 C 191.40625 233.238281 192.980469 232.855469 193.789062 231.746094 Z M 193.785156 231.746094 " fill-opacity="1" fill-rule="nonzero"/><g clip-path="url(#2a8f12e7ec)"><path fill="#e6f2ff" d="M 237.300781 173.933594 L 245.082031 206.210938 C 245.148438 206.492188 244.976562 206.773438 244.695312 206.839844 L 236.511719 208.8125 C 235.503906 209.054688 234.484375 208.433594 234.242188 207.425781 L 227.101562 177.792969 C 226.859375 176.78125 227.480469 175.765625 228.488281 175.523438 L 236.671875 173.550781 C 236.953125 173.484375 237.234375 173.65625 237.300781 173.9375 Z M 237.300781 173.933594 " fill-opacity="1" fill-rule="nonzero"/></g><path fill="#e6f2ff" d="M 158.378906 210.625 C 157.859375 210.199219 157.230469 209.976562 156.582031 209.976562 C 156.464844 209.976562 156.34375 209.984375 156.226562 210 C 155.433594 210.101562 154.722656 210.519531 154.226562 211.1875 L 150.3125 216.484375 C 149.273438 217.886719 149.519531 219.992188 150.847656 221.078125 C 151.460938 221.582031 152.222656 221.804688 152.996094 221.707031 C 153.789062 221.605469 154.5 221.1875 154.996094 220.519531 L 158.910156 215.222656 C 159.949219 213.820312 159.707031 211.714844 158.375 210.628906 Z M 158.378906 210.625 " fill-opacity="1" fill-rule="nonzero"/><path fill="#e6f2ff" d="M 207.386719 177.945312 C 202.453125 176.917969 197.792969 175.945312 194.109375 176.699219 C 191.789062 177.171875 181.449219 182.46875 179.265625 187.222656 L 175.355469 198.421875 C 175.25 198.730469 175.335938 198.984375 175.398438 199.109375 C 175.453125 199.210938 175.574219 199.402344 175.808594 199.476562 C 178.421875 200.316406 180.691406 199.542969 182.558594 197.183594 C 184.070312 195.074219 185.179688 193.230469 185.84375 192.125 C 186.109375 191.679688 186.304688 191.355469 186.449219 191.140625 C 186.910156 190.457031 187.640625 190.023438 188.453125 189.957031 L 193.132812 189.558594 C 194.058594 189.480469 194.988281 189.738281 195.75 190.289062 L 220.496094 207.960938 C 220.53125 207.984375 220.5625 208.007812 220.59375 208.035156 C 221.304688 208.621094 221.851562 209.25 222.28125 209.859375 C 222.496094 210.160156 222.839844 210.347656 223.207031 210.367188 C 226 210.496094 227.605469 209.714844 230.039062 208.53125 C 230.234375 208.4375 230.433594 208.339844 230.640625 208.238281 C 230.898438 208.113281 231.03125 207.832031 230.960938 207.554688 L 224.128906 179.53125 C 224.050781 179.210938 223.726562 179.015625 223.402344 179.089844 C 218.542969 180.269531 212.886719 179.09375 207.386719 177.949219 Z M 207.386719 177.945312 " fill-opacity="1" fill-rule="nonzero"/><path fill="#e6f2ff" d="M 178.195312 221.050781 C 178.941406 219.667969 178.636719 217.832031 177.421875 216.839844 C 176.902344 216.414062 176.277344 216.191406 175.625 216.191406 C 175.511719 216.191406 175.390625 216.195312 175.273438 216.214844 C 174.480469 216.3125 173.769531 216.734375 173.273438 217.402344 L 167.039062 225.832031 C 166.003906 227.234375 166.246094 229.339844 167.574219 230.425781 C 168.191406 230.929688 168.953125 231.148438 169.726562 231.054688 C 170.519531 230.953125 171.230469 230.535156 171.722656 229.867188 L 173.222656 227.839844 C 173.355469 227.605469 173.496094 227.378906 173.65625 227.15625 L 177.929688 221.378906 C 178.015625 221.265625 178.105469 221.160156 178.199219 221.054688 Z M 178.195312 221.050781 " fill-opacity="1" fill-rule="nonzero"/><path fill="#e6f2ff" d="M 170.214844 210.652344 C 169.691406 210.226562 169.066406 210.003906 168.414062 210.003906 C 168.300781 210.003906 168.179688 210.007812 168.0625 210.027344 C 167.269531 210.125 166.558594 210.546875 166.0625 211.214844 L 157.738281 222.476562 C 156.699219 223.878906 156.941406 225.980469 158.273438 227.070312 C 158.886719 227.570312 159.648438 227.792969 160.421875 227.695312 C 161.214844 227.597656 161.925781 227.175781 162.421875 226.507812 L 170.746094 215.246094 C 171.785156 213.84375 171.539062 211.742188 170.210938 210.652344 Z M 170.214844 210.652344 " fill-opacity="1" fill-rule="nonzero"/><g clip-path="url(#561d255e9e)"><path fill="#e6f2ff" d="M 184.738281 222.78125 C 184.214844 222.355469 183.589844 222.128906 182.9375 222.128906 C 182.820312 222.128906 182.703125 222.136719 182.585938 222.152344 C 181.929688 222.234375 181.335938 222.539062 180.871094 223.011719 C 180.789062 223.144531 180.707031 223.269531 180.617188 223.394531 L 176.011719 229.621094 C 175.347656 230.988281 175.671875 232.75 176.847656 233.710938 C 177.460938 234.214844 178.226562 234.4375 179 234.339844 C 179.792969 234.238281 180.5 233.820312 180.996094 233.152344 L 185.265625 227.375 C 186.304688 225.96875 186.0625 223.867188 184.730469 222.78125 Z M 184.738281 222.78125 " fill-opacity="1" fill-rule="nonzero"/></g><g clip-path="url(#86425af468)"><path fill="#e6f2ff" d="M 147.894531 178.808594 L 140.753906 208.441406 C 140.507812 209.449219 139.492188 210.070312 138.484375 209.828125 L 130.300781 207.855469 C 130.019531 207.789062 129.847656 207.507812 129.914062 207.226562 L 137.691406 174.949219 C 137.761719 174.667969 138.042969 174.496094 138.320312 174.566406 L 146.507812 176.539062 C 147.515625 176.78125 148.136719 177.796875 147.894531 178.804688 Z M 147.894531 178.808594 " fill-opacity="1" fill-rule="nonzero"/></g></svg>